<?xml version="1.0" standalone="no"?>
<!DOCTYPE svg PUBLIC "-//W3C//DTD SVG 20010904//EN"
 "http://www.w3.org/TR/2001/REC-SVG-20010904/DTD/svg10.dtd">
<svg version="1.0" xmlns="http://www.w3.org/2000/svg"
 width="226.000000pt" height="143.000000pt" viewBox="0 0 226.000000 143.000000"
 preserveAspectRatio="xMidYMid meet">

<g transform="translate(0.000000,143.000000) scale(0.100000,-0.100000)"
fill="#000000" stroke="none">
<path d="M575 1100 c-16 -3 -103 -4 -192 -2 -122 4 -166 2 -178 -8 -20 -17
-19 -73 3 -100 15 -18 21 -20 45 -11 16 6 39 11 52 11 l24 0 -19 -67 c-10 -38
-35 -120 -54 -183 -20 -63 -36 -127 -36 -141 0 -47 45 -69 108 -53 18 5 22 13
22 50 0 24 2 44 5 44 4 0 23 -16 43 -36 55 -54 118 -95 197 -127 159 -65 413
-105 601 -94 98 6 103 5 124 -18 86 -92 352 -25 376 94 4 19 21 35 57 56 29
17 57 30 63 30 6 0 47 -45 91 -101 45 -55 88 -106 96 -113 13 -10 29 5 107
100 106 129 130 172 137 244 11 102 -47 201 -139 240 -56 23 -145 20 -198 -8
l-45 -22 -42 30 c-23 16 -42 38 -43 47 0 32 -50 59 -104 57 -28 -1 -94 10
-146 24 -147 39 -270 51 -464 44 -163 -6 -224 -15 -408 -62 -26 -7 -28 -5 -28
22 0 43 -19 61 -55 53z m-50 -120 c16 -1 14 -4 -10 -17 -16 -8 -38 -22 -48
-31 -24 -21 -29 -11 -16 27 9 26 16 32 33 27 11 -3 30 -6 41 -6z m1571 -99
c154 -70 153 -292 -2 -366 -67 -32 -163 -13 -218 42 -37 37 -20 49 20 14 89
-79 219 -56 272 49 28 55 28 101 1 157 -38 79 -157 119 -229 78 -30 -17 -50
-19 -50 -5 0 17 82 50 125 50 22 0 58 -9 81 -19z m-57 -50 c10 -7 0 -17 -40
-40 -62 -36 -65 -36 -73 -16 -3 10 7 23 32 39 40 27 59 31 81 17z m65 -36 c23
-17 25 -16 -40 -48 -47 -24 -53 -25 -70 -11 -11 8 -14 17 -9 20 6 2 28 15 50
28 48 29 46 29 69 11z m29 -175 c-4 -4 -29 -19 -55 -34 l-48 -27 0 74 0 73 53
26 52 25 3 -65 c2 -36 -1 -68 -5 -72z m-145 91 c9 -5 12 -29 10 -79 l-3 -71
-52 30 -53 30 16 30 c12 25 18 28 30 18 12 -9 14 -6 14 20 0 31 13 39 38 22z
m-443 -281 c-3 -5 -14 -10 -23 -9 -14 0 -13 2 3 9 27 11 27 11 20 0z"/>
</g>
</svg>
