<?xml version="1.0" standalone="no"?>
<!DOCTYPE svg PUBLIC "-//W3C//DTD SVG 20010904//EN"
 "http://www.w3.org/TR/2001/REC-SVG-20010904/DTD/svg10.dtd">
<svg version="1.0" xmlns="http://www.w3.org/2000/svg"
 width="223.000000pt" height="143.000000pt" viewBox="0 0 223.000000 143.000000"
 preserveAspectRatio="xMidYMid meet">

<g transform="translate(0.000000,143.000000) scale(0.100000,-0.100000)"
fill="#000000" stroke="none">
<path d="M206 1084 c-19 -18 -20 -44 -5 -78 11 -24 15 -25 71 -19 l59 6 -7
-29 c-4 -16 -29 -102 -56 -192 -27 -89 -48 -173 -46 -185 4 -31 49 -50 90 -39
32 8 33 10 39 73 3 35 28 131 56 214 l50 150 54 -3 c30 -1 64 0 76 3 30 7 46
40 39 79 l-6 31 -199 3 c-171 2 -202 0 -215 -14z"/>
<path d="M1640 1009 c-41 -17 -60 -40 -60 -76 0 -31 -2 -33 -32 -33 -33 0
-100 -27 -128 -52 -70 -59 -80 -134 -28 -194 28 -32 30 -37 15 -46 -22 -12
-22 -51 1 -71 9 -8 46 -21 82 -27 36 -6 71 -16 78 -22 54 -45 -66 -102 -138
-65 -19 10 -25 21 -25 47 -1 32 -4 35 -33 38 -67 7 -106 -75 -62 -131 29 -37
80 -50 169 -45 87 5 144 29 185 78 67 80 -3 149 -152 150 -66 0 -48 22 34 41
79 18 120 37 150 71 32 35 44 63 44 103 0 45 -20 76 -70 109 -39 25 -52 57
-30 71 18 11 50 -6 56 -31 8 -30 36 -32 64 -4 33 33 20 71 -31 89 -38 13 -56
13 -89 0z m-22 -161 c20 -20 14 -92 -10 -128 -37 -54 -73 -76 -105 -64 -24 8
-28 15 -31 54 -3 54 22 101 70 130 38 23 59 25 76 8z"/>
<path d="M1910 944 c-41 -18 -96 -68 -116 -106 -23 -44 -19 -184 7 -232 49
-92 177 -246 204 -246 7 0 167 195 191 232 21 33 24 49 24 136 0 93 -2 101
-29 139 -58 80 -190 116 -281 77z m190 -44 c113 -58 134 -228 38 -317 -88 -82
-235 -65 -298 34 -54 85 -48 174 18 245 65 69 154 83 242 38z"/>
<path d="M1918 880 c-55 -30 -82 -74 -86 -145 -3 -50 0 -66 20 -95 38 -55 82
-80 145 -80 111 0 178 65 178 171 -1 49 -5 64 -31 96 -57 72 -149 93 -226 53z
m142 -37 c55 -31 60 -39 30 -48 -18 -6 -43 5 -103 46 -11 8 -1 29 14 29 5 0
31 -12 59 -27z m-28 -68 c7 -21 -43 -15 -88 11 -43 25 -45 29 -29 41 16 11 25
9 66 -15 26 -15 49 -31 51 -37z m-92 -20 l50 -25 0 -65 c0 -43 -4 -65 -12 -65
-6 0 -33 14 -60 31 -38 25 -48 37 -48 59 0 32 11 90 17 90 2 0 26 -11 53 -25z
m190 -38 l0 -64 -52 -29 c-29 -16 -56 -30 -60 -32 -9 -4 -10 93 -2 125 3 11
14 23 25 26 16 4 19 0 19 -25 0 -43 24 -30 28 15 2 23 9 37 20 40 9 3 18 5 20
6 1 0 2 -28 2 -62z"/>
<path d="M663 895 c-54 -23 -66 -76 -22 -90 14 -5 27 1 44 19 43 46 106 45
113 -2 4 -25 -22 -40 -127 -71 -115 -35 -165 -97 -130 -163 25 -47 115 -57
159 -16 22 20 22 20 35 0 17 -23 56 -33 92 -23 22 6 26 14 30 55 2 26 15 82
28 124 14 42 25 86 25 98 0 24 -34 58 -73 73 -39 15 -136 13 -174 -4z m75
-223 c-17 -36 -29 -48 -49 -50 -31 -4 -53 20 -44 47 3 10 22 26 43 36 20 9 44
20 52 24 24 14 24 -6 -2 -57z"/>
<path d="M1000 868 c0 -17 -18 -85 -41 -151 -46 -134 -45 -159 10 -170 54 -11
73 3 78 58 5 57 39 124 92 183 39 42 71 55 71 27 0 -8 -16 -56 -35 -107 -48
-127 -45 -153 15 -159 61 -5 67 -1 72 46 3 25 20 92 38 149 32 100 32 106 16
130 -31 48 -111 30 -190 -43 -28 -25 -29 -25 -23 -4 8 35 -27 73 -69 73 -32 0
-34 -2 -34 -32z"/>
</g>
</svg>
